# xmcd
#
# Track frame offsets: 
#        150
#        16767
#        41281
#        56317
#        80767
#        106915
#        126118
#        141835
#        167676
#        181865
#        202870
#        223400
#        236405
#        267495
#        280411
#
# Disc length: 3933 seconds
#
# Revision: 2
# Processed by: cddbd v1.5.2PL0 Copyright (c) Steve Scherf et al.
# Submitted via: ExactAudioCopyFreeDBPlugin 1.0
#
DISCID=cf0f5b0f
DTITLE=Various Artist - Jazz Standards (Sony)
DYEAR=2009
DGENRE=Jazz
TTITLE0=Glenn Miller - Moonlight Serenade
TTITLE1=Dave Brubeck - Take five
TTITLE2=Miles Davis and Gil Evans - Summertime
TTITLE3=Stan Getz - Misty
TTITLE4=Toots Thielemans - Killer Joe
TTITLE5=Ben Webster and Harry "Sweets" Edison - My romance
TTITLE6=Chet Baker - Over the rainbow
TTITLE7=Charles Mingus - Goodbye pork pie hat
TTITLE8=Erroll Garner - Poor butterfly
TTITLE9=George Benson - Theme from summer of '42
TTITLE10=Paul Desmond - Squeeze me
TTITLE11=Neal Hefti - Girl talk
TTITLE12=Bill Evans and Dave Pike - Besame Mucho
TTITLE13=Art Blakey - III Wind
TTITLE14=Duke Ellington - In a sentimental mood
EXTD=YEAR: 2009
EXTT0=
EXTT1=
EXTT2=
EXTT3=
EXTT4=
EXTT5=
EXTT6=
EXTT7=
EXTT8=
EXTT9=
EXTT10=
EXTT11=
EXTT12=
EXTT13=
EXTT14=
PLAYORDER=
